<svg width="20" height="20" viewBox="0 0 20 20" fill="none" xmlns="http://www.w3.org/2000/svg">
<path d="M17.9765 6.18V1C17.9765 0.734784 17.8711 0.48043 17.6836 0.292893C17.496 0.105357 17.2417 0 16.9765 0C16.7113 0 16.4569 0.105357 16.2694 0.292893C16.0818 0.48043 15.9765 0.734784 15.9765 1V6.18C15.3973 6.3902 14.8969 6.77363 14.5433 7.27816C14.1897 7.7827 14 8.38388 14 9C14 9.61612 14.1897 10.2173 14.5433 10.7218C14.8969 11.2264 15.3973 11.6098 15.9765 11.82V19C15.9765 19.2652 16.0818 19.5196 16.2694 19.7071C16.4569 19.8946 16.7113 20 16.9765 20C17.2417 20 17.496 19.8946 17.6836 19.7071C17.8711 19.5196 17.9765 19.2652 17.9765 19V11.82C18.5556 11.6098 19.056 11.2264 19.4096 10.7218C19.7633 10.2173 19.953 9.61612 19.953 9C19.953 8.38388 19.7633 7.7827 19.4096 7.27816C19.056 6.77363 18.5556 6.3902 17.9765 6.18V6.18ZM16.9765 10C16.7787 10 16.5854 9.94135 16.4209 9.83147C16.2565 9.72159 16.1283 9.56541 16.0526 9.38268C15.9769 9.19996 15.9571 8.99889 15.9957 8.80491C16.0343 8.61093 16.1295 8.43275 16.2694 8.29289C16.4092 8.15304 16.5874 8.0578 16.7814 8.01921C16.9754 7.98063 17.1764 8.00043 17.3592 8.07612C17.5419 8.15181 17.6981 8.27998 17.8079 8.44443C17.9178 8.60888 17.9765 8.80222 17.9765 9C17.9765 9.26522 17.8711 9.51957 17.6836 9.70711C17.496 9.89464 17.2417 10 16.9765 10ZM10.9765 12.18V1C10.9765 0.734784 10.8711 0.48043 10.6836 0.292893C10.496 0.105357 10.2417 0 9.97648 0C9.71126 0 9.45691 0.105357 9.26937 0.292893C9.08183 0.48043 8.97648 0.734784 8.97648 1V12.18C8.39732 12.3902 7.89694 12.7736 7.54332 13.2782C7.1897 13.7827 7 14.3839 7 15C7 15.6161 7.1897 16.2173 7.54332 16.7218C7.89694 17.2264 8.39732 17.6098 8.97648 17.82V19C8.97648 19.2652 9.08183 19.5196 9.26937 19.7071C9.45691 19.8946 9.71126 20 9.97648 20C10.2417 20 10.496 19.8946 10.6836 19.7071C10.8711 19.5196 10.9765 19.2652 10.9765 19V17.82C11.5556 17.6098 12.056 17.2264 12.4096 16.7218C12.7633 16.2173 12.953 15.6161 12.953 15C12.953 14.3839 12.7633 13.7827 12.4096 13.2782C12.056 12.7736 11.5556 12.3902 10.9765 12.18ZM9.97648 16C9.7787 16 9.58536 15.9414 9.42091 15.8315C9.25646 15.7216 9.12828 15.5654 9.0526 15.3827C8.97691 15.2 8.95711 14.9989 8.99569 14.8049C9.03428 14.6109 9.12952 14.4327 9.26937 14.2929C9.40922 14.153 9.58741 14.0578 9.78139 14.0192C9.97537 13.9806 10.1764 14.0004 10.3592 14.0761C10.5419 14.1518 10.6981 14.28 10.8079 14.4444C10.9178 14.6089 10.9765 14.8022 10.9765 15C10.9765 15.2652 10.8711 15.5196 10.6836 15.7071C10.496 15.8946 10.2417 16 9.97648 16ZM3.97648 4.18V1C3.97648 0.734784 3.87112 0.48043 3.68358 0.292893C3.49605 0.105357 3.24169 0 2.97648 0C2.71126 0 2.45691 0.105357 2.26937 0.292893C2.08183 0.48043 1.97648 0.734784 1.97648 1V4.18C1.39732 4.3902 0.896937 4.77363 0.543318 5.27817C0.1897 5.7827 0 6.38388 0 7C0 7.61612 0.1897 8.2173 0.543318 8.72184C0.896937 9.22637 1.39732 9.6098 1.97648 9.82V19C1.97648 19.2652 2.08183 19.5196 2.26937 19.7071C2.45691 19.8946 2.71126 20 2.97648 20C3.24169 20 3.49605 19.8946 3.68358 19.7071C3.87112 19.5196 3.97648 19.2652 3.97648 19V9.82C4.55563 9.6098 5.05602 9.22637 5.40964 8.72184C5.76325 8.2173 5.95295 7.61612 5.95295 7C5.95295 6.38388 5.76325 5.7827 5.40964 5.27817C5.05602 4.77363 4.55563 4.3902 3.97648 4.18V4.18ZM2.97648 8C2.7787 8 2.58536 7.94135 2.42091 7.83147C2.25646 7.72159 2.12828 7.56541 2.0526 7.38268C1.97691 7.19996 1.95711 6.99889 1.99569 6.80491C2.03428 6.61093 2.12952 6.43275 2.26937 6.29289C2.40922 6.15304 2.58741 6.0578 2.78139 6.01921C2.97537 5.98063 3.17643 6.00043 3.35916 6.07612C3.54189 6.15181 3.69806 6.27998 3.80795 6.44443C3.91783 6.60888 3.97648 6.80222 3.97648 7C3.97648 7.26522 3.87112 7.51957 3.68358 7.70711C3.49605 7.89464 3.24169 8 2.97648 8Z" fill="#0079FF"/>
</svg>
