<svg width="20" height="20" viewBox="0 0 20 20" fill="none" xmlns="http://www.w3.org/2000/svg">
<path d="M12.2984 15.2767L11.0084 16.5767V10.9867C11.0084 10.7215 10.9031 10.4671 10.7155 10.2796C10.528 10.0921 10.2737 9.98671 10.0084 9.98671C9.74322 9.98671 9.48886 10.0921 9.30133 10.2796C9.11379 10.4671 9.00844 10.7215 9.00844 10.9867V16.5767L7.71844 15.2767C7.6252 15.1835 7.51451 15.1095 7.39268 15.0591C7.27086 15.0086 7.14029 14.9826 7.00844 14.9826C6.87658 14.9826 6.74601 15.0086 6.62419 15.0591C6.50236 15.1095 6.39167 15.1835 6.29844 15.2767C6.2052 15.37 6.13124 15.4806 6.08078 15.6025C6.03031 15.7243 6.00434 15.8549 6.00434 15.9867C6.00434 16.1186 6.03031 16.2491 6.08078 16.371C6.13124 16.4928 6.2052 16.6035 6.29844 16.6967L9.29844 19.6967C9.39354 19.7878 9.50568 19.8591 9.62844 19.9067C9.74814 19.9596 9.87756 19.9869 10.0084 19.9869C10.1393 19.9869 10.2687 19.9596 10.3884 19.9067C10.5112 19.8591 10.6233 19.7878 10.7184 19.6967L13.7184 16.6967C13.9067 16.5084 14.0125 16.253 14.0125 15.9867C14.0125 15.7204 13.9067 15.465 13.7184 15.2767C13.5301 15.0884 13.2747 14.9826 13.0084 14.9826C12.7421 14.9826 12.4867 15.0884 12.2984 15.2767ZM16.4284 4.20671C15.8174 2.80272 14.7629 1.63779 13.4265 0.890438C12.0901 0.143088 10.5455 -0.145456 9.0294 0.0690207C7.51331 0.283498 6.10936 0.989164 5.03269 2.07789C3.95602 3.16661 3.26602 4.57833 3.06844 6.09671C2.11502 6.32503 1.27866 6.89554 0.718173 7.6999C0.157689 8.50426 -0.0878807 9.48644 0.0280989 10.4599C0.144078 11.4334 0.61353 12.3304 1.3473 12.9806C2.08107 13.6307 3.02806 13.9888 4.00844 13.9867C4.27365 13.9867 4.52801 13.8814 4.71554 13.6938C4.90308 13.5063 5.00844 13.2519 5.00844 12.9867C5.00844 12.7215 4.90308 12.4671 4.71554 12.2796C4.52801 12.0921 4.27365 11.9867 4.00844 11.9867C3.478 11.9867 2.96929 11.776 2.59422 11.4009C2.21915 11.0259 2.00844 10.5171 2.00844 9.98671C2.00844 9.45628 2.21915 8.94757 2.59422 8.5725C2.96929 8.19743 3.478 7.98671 4.00844 7.98671C4.27365 7.98671 4.52801 7.88135 4.71554 7.69382C4.90308 7.50628 5.00844 7.25193 5.00844 6.98671C5.01099 5.80399 5.43272 4.66046 6.1987 3.75929C6.96469 2.85812 8.02533 2.25766 9.19218 2.06458C10.359 1.87151 11.5566 2.09832 12.572 2.70472C13.5874 3.31112 14.355 4.25785 14.7384 5.37671C14.7956 5.54855 14.8983 5.70164 15.0357 5.81964C15.1731 5.93765 15.3399 6.01613 15.5184 6.04671C16.1845 6.17258 16.7883 6.52031 17.2315 7.03325C17.6746 7.54618 17.931 8.19407 17.9588 8.87135C17.9867 9.54863 17.7843 10.2154 17.3847 10.7629C16.9852 11.3105 16.4119 11.7066 15.7584 11.8867C15.6311 11.9195 15.5114 11.9771 15.4063 12.0562C15.3011 12.1353 15.2126 12.2343 15.1458 12.3476C15.0789 12.4609 15.035 12.5862 15.0166 12.7165C14.9982 12.8467 15.0056 12.9793 15.0384 13.1067C15.0713 13.2341 15.1289 13.3538 15.2079 13.4589C15.287 13.564 15.386 13.6525 15.4993 13.7194C15.6126 13.7862 15.738 13.8301 15.8682 13.8485C15.9985 13.867 16.1311 13.8595 16.2584 13.8267C17.3108 13.5486 18.2437 12.9347 18.9154 12.0782C19.5872 11.2217 19.961 10.1693 19.9803 9.08098C19.9995 7.99264 19.663 6.92775 19.022 6.04803C18.381 5.16831 17.4703 4.52181 16.4284 4.20671Z" fill="#D3D3D3"/>
</svg>
