<svg width="15" height="15" viewBox="0 0 15 15" fill="none" xmlns="http://www.w3.org/2000/svg">
<path fill-rule="evenodd" clip-rule="evenodd" d="M8.59462 4.60835C7.70794 4.50925 6.79206 4.50925 5.90537 4.60835C5.23763 4.68298 4.6965 5.20855 4.61743 5.88457C4.51133 6.79177 4.51133 7.70824 4.61743 8.61544C4.6965 9.29145 5.23763 9.81703 5.90537 9.89165C6.79206 9.99076 7.70793 9.99076 8.59462 9.89165C9.26236 9.81703 9.80349 9.29145 9.88256 8.61544C9.98866 7.70824 9.98866 6.79177 9.88256 5.88457C9.80349 5.20855 9.26236 4.68298 8.59462 4.60835ZM6.02926 5.71683C6.83361 5.62693 7.66638 5.62693 8.47073 5.71683C8.63138 5.73479 8.75696 5.86224 8.77473 6.01414C8.87076 6.83525 8.87076 7.66475 8.77473 8.48586C8.75696 8.63776 8.63138 8.76522 8.47073 8.78317C7.66638 8.87307 6.83361 8.87307 6.02926 8.78317C5.86861 8.76522 5.74303 8.63776 5.72527 8.48586C5.62923 7.66475 5.62923 6.83525 5.72527 6.01414C5.74303 5.86224 5.86861 5.73479 6.02926 5.71683Z" fill="#D3D3D3"/>
<path fill-rule="evenodd" clip-rule="evenodd" d="M10.0385 0.557692C10.0385 0.249687 9.78877 0 9.48077 0C9.17276 0 8.92308 0.249687 8.92308 0.557692V2.43423C8.55257 2.40821 8.1804 2.39087 7.80769 2.38221V1.30128C7.80769 0.993277 7.558 0.74359 7.25 0.74359C6.942 0.74359 6.69231 0.993277 6.69231 1.30128V2.38221C6.3196 2.39087 5.94743 2.40821 5.57692 2.43423V0.557692C5.57692 0.249687 5.32724 0 5.01923 0C4.71123 0 4.46154 0.249687 4.46154 0.557692V2.54458C3.49492 2.72064 2.7234 3.48439 2.55639 4.46154H0.557692C0.249687 4.46154 0 4.71123 0 5.01923C0 5.32724 0.249687 5.57692 0.557692 5.57692H2.44448C2.41733 5.94833 2.39923 6.32024 2.39019 6.69231H1.30128C0.993277 6.69231 0.74359 6.942 0.74359 7.25C0.74359 7.558 0.993277 7.80769 1.30128 7.80769H2.39019C2.39923 8.17976 2.41733 8.55167 2.44448 8.92308H0.557692C0.249687 8.92308 0 9.17276 0 9.48077C0 9.78877 0.249687 10.0385 0.557692 10.0385H2.55639C2.7234 11.0156 3.49492 11.7794 4.46154 11.9554V13.9423C4.46154 14.2503 4.71123 14.5 5.01923 14.5C5.32724 14.5 5.57692 14.2503 5.57692 13.9423V12.0658C5.94743 12.0918 6.3196 12.1091 6.69231 12.1178V13.1987C6.69231 13.5067 6.942 13.7564 7.25 13.7564C7.558 13.7564 7.80769 13.5067 7.80769 13.1987V12.1178C8.1804 12.1091 8.55257 12.0918 8.92308 12.0658V13.9423C8.92308 14.2503 9.17276 14.5 9.48077 14.5C9.78877 14.5 10.0385 14.2503 10.0385 13.9423V11.9554C11.0051 11.7794 11.7766 11.0156 11.9436 10.0385H13.9423C14.2503 10.0385 14.5 9.78877 14.5 9.48077C14.5 9.17276 14.2503 8.92308 13.9423 8.92308H12.0555C12.0827 8.55167 12.1008 8.17976 12.1098 7.80769H13.1987C13.5067 7.80769 13.7564 7.558 13.7564 7.25C13.7564 6.942 13.5067 6.69231 13.1987 6.69231H12.1098C12.1008 6.32024 12.0827 5.94833 12.0555 5.57692H13.9423C14.2503 5.57692 14.5 5.32724 14.5 5.01923C14.5 4.71123 14.2503 4.46154 13.9423 4.46154H11.9436C11.7766 3.48439 11.0051 2.72064 10.0385 2.54458V0.557692ZM4.74659 3.62942C6.39645 3.44502 8.10355 3.44502 9.75341 3.62942C10.3283 3.69367 10.7872 4.14763 10.8534 4.71349C11.0505 6.39875 11.0505 8.10125 10.8534 9.78651C10.7872 10.3524 10.3283 10.8063 9.75341 10.8706C8.10355 11.055 6.39645 11.055 4.74659 10.8706C4.17174 10.8063 3.71281 10.3524 3.64663 9.78651C3.44952 8.10124 3.44952 6.39875 3.64663 4.71349C3.71281 4.14763 4.17174 3.69367 4.74659 3.62942Z" fill="#D3D3D3"/>
</svg>
