<svg width="11" height="15" viewBox="0 0 11 15" fill="none" xmlns="http://www.w3.org/2000/svg">
<path d="M4.38131 10.0512C4.38131 9.44441 4.8732 8.95252 5.47998 8.95252C6.08676 8.95252 6.57865 9.44441 6.57865 10.0512C6.57865 10.658 6.08676 11.1499 5.47998 11.1499C4.8732 11.1499 4.38131 10.658 4.38131 10.0512Z" fill="#D3D3D3"/>
<path fill-rule="evenodd" clip-rule="evenodd" d="M2.27308 6.09389L2.04203 4.01449C2.01241 3.7479 2.01241 3.47884 2.04203 3.21225L2.05871 3.06217C2.23558 1.47028 3.48704 0.210721 5.07776 0.0235777C5.34497 -0.00785925 5.61495 -0.00785925 5.88217 0.0235778C7.47288 0.210721 8.72434 1.47028 8.90122 3.06217L8.91789 3.21225C8.94752 3.47884 8.94752 3.7479 8.91789 4.01449L8.68685 6.09388L9.18975 6.13403C9.98279 6.19734 10.6303 6.79348 10.7589 7.57859C11.027 9.21608 11.027 10.8863 10.7589 12.5238C10.6303 13.3089 9.98279 13.905 9.18975 13.9683L8.09391 14.0558C6.35407 14.1947 4.60593 14.1947 2.86609 14.0558L1.77025 13.9683C0.977211 13.905 0.329652 13.3089 0.201096 12.5238C-0.067032 10.8863 -0.067032 9.21608 0.201096 7.57859C0.329652 6.79348 0.977211 6.19734 1.77025 6.13403L2.27308 6.09389ZM5.20613 1.11472C5.38806 1.09332 5.57187 1.09332 5.7538 1.11472C6.83681 1.24214 7.68885 2.09968 7.80927 3.1835L7.82594 3.33357C7.84661 3.51953 7.84661 3.7072 7.82594 3.89316L7.59071 6.01026C6.185 5.91974 4.77492 5.91975 3.36922 6.01027L3.13398 3.89316C3.11332 3.7072 3.11332 3.51953 3.13398 3.33357L3.15066 3.1835C3.27108 2.09968 4.12311 1.24214 5.20613 1.11472ZM8.00648 7.14173C6.32484 7.00748 4.63516 7.00748 2.95352 7.14173L1.85768 7.22921C1.56842 7.25231 1.33222 7.46975 1.28533 7.75612C1.03645 9.27604 1.03645 10.8263 1.28533 12.3463C1.33222 12.6326 1.56842 12.8501 1.85768 12.8732L2.95352 12.9606C4.63516 13.0949 6.32484 13.0949 8.00648 12.9606L9.10232 12.8732C9.39158 12.8501 9.62778 12.6326 9.67467 12.3463C9.92355 10.8263 9.92355 9.27604 9.67467 7.75612C9.62778 7.46975 9.39158 7.25231 9.10232 7.22921L8.00648 7.14173Z" fill="#D3D3D3"/>
</svg>
