<svg width="14" height="14" viewBox="0 0 14 14" fill="none" xmlns="http://www.w3.org/2000/svg">
<path fill-rule="evenodd" clip-rule="evenodd" d="M5.84269 0.646338C6.34275 -0.215447 7.58726 -0.215445 8.08731 0.646339L9.61871 3.2855C9.75987 3.52876 10.0038 3.69477 10.2819 3.73677L12.8249 4.12086C13.9334 4.28828 14.3222 5.68786 13.459 6.40308L11.6061 7.93815C11.346 8.15361 11.2238 8.49347 11.2869 8.82524L11.8059 11.5509C12.0093 12.6185 10.8884 13.4481 9.92674 12.9417L7.39682 11.6096C7.12653 11.4673 6.80347 11.4673 6.53318 11.6096L4.00326 12.9417C3.04157 13.4481 1.92074 12.6185 2.12405 11.5509L2.64307 8.82524C2.70624 8.49348 2.58396 8.15361 2.3239 7.93815L0.471036 6.40307C-0.392245 5.68786 -0.00341594 4.28828 1.10508 4.12086L3.64806 3.73677C3.92615 3.69477 4.17013 3.52876 4.31129 3.2855L5.84269 0.646338ZM7.12533 1.20454C7.05389 1.08143 6.87611 1.08143 6.80467 1.20454L5.27327 3.8437C4.96273 4.37888 4.42597 4.7441 3.81416 4.8365L1.27118 5.22059C1.11282 5.24451 1.05728 5.44445 1.1806 5.54662L3.03346 7.08169C3.6056 7.55571 3.87462 8.30341 3.73564 9.03329L3.21663 11.7589C3.18758 11.9114 3.3477 12.0299 3.48509 11.9576L6.015 10.6255C6.60964 10.3124 7.32036 10.3124 7.915 10.6255L10.4449 11.9576C10.5823 12.0299 10.7424 11.9114 10.7134 11.7589L10.1944 9.03329C10.0554 8.30341 10.3244 7.55571 10.8965 7.0817L12.7494 5.54662C12.8727 5.44444 12.8172 5.24451 12.6588 5.22059L10.1158 4.8365C9.50403 4.7441 8.96727 4.37888 8.65673 3.8437L7.12533 1.20454Z" fill="#D3D3D3"/>
</svg>
