<svg width="11" height="15" viewBox="0 0 11 15" fill="none" xmlns="http://www.w3.org/2000/svg">
<path d="M4.38133 10.0508C4.38133 9.44405 4.87322 8.95216 5.48 8.95216C6.08678 8.95216 6.57867 9.44405 6.57867 10.0508C6.57867 10.6576 6.08678 11.1495 5.48 11.1495C4.87322 11.1495 4.38133 10.6576 4.38133 10.0508Z" fill="#D3D3D3"/>
<path fill-rule="evenodd" clip-rule="evenodd" d="M3.8763 1.26512C4.04649 1.19736 4.22404 1.14979 4.40531 1.12338C5.4844 0.966145 6.52935 1.57395 6.92618 2.58967L6.98113 2.73031C7.04922 2.90459 7.09779 3.08586 7.12596 3.27083L7.28463 4.3126L8.37077 4.14718L8.21211 3.10541C8.17172 2.84023 8.10208 2.58035 8.00447 2.3305L7.94952 2.18986C7.36666 0.697985 5.83185 -0.194753 4.2469 0.0361885C3.98065 0.0749828 3.71987 0.144858 3.4699 0.244384C1.98182 0.836859 1.099 2.3774 1.34016 3.96083L1.3629 4.11011C1.40329 4.37528 1.47292 4.63517 1.57053 4.88501L2.04966 6.11137L1.77025 6.13367C0.977211 6.19698 0.329652 6.79312 0.201096 7.57823C-0.067032 9.21573 -0.067032 10.8859 0.201096 12.5234C0.329652 13.3085 0.977211 13.9047 1.77025 13.968L2.86609 14.0555C4.60593 14.1944 6.35407 14.1944 8.09391 14.0555L9.18975 13.968C9.98279 13.9047 10.6303 13.3085 10.7589 12.5234C11.027 10.8859 11.027 9.21573 10.7589 7.57823C10.6303 6.79312 9.98279 6.19698 9.18975 6.13367L8.09391 6.04619C6.4634 5.91602 4.82559 5.90784 3.19415 6.02165L2.59387 4.4852C2.52579 4.31093 2.47721 4.12965 2.44904 3.94468L2.42631 3.7954C2.26212 2.71735 2.86317 1.6685 3.8763 1.26512ZM8.00648 7.14138C6.32484 7.00713 4.63516 7.00713 2.95352 7.14138L1.85768 7.22886C1.56842 7.25195 1.33222 7.4694 1.28533 7.75577C1.03645 9.27569 1.03645 10.826 1.28533 12.3459C1.33222 12.6323 1.56842 12.8497 1.85768 12.8728L2.95352 12.9603C4.63516 13.0945 6.32484 13.0945 8.00648 12.9603L9.10232 12.8728C9.39158 12.8497 9.62778 12.6323 9.67467 12.3459C9.92355 10.826 9.92355 9.27569 9.67467 7.75577C9.62778 7.4694 9.39158 7.25195 9.10232 7.22886L8.00648 7.14138Z" fill="#D3D3D3"/>
</svg>
